<mxfile host="app.diagrams.net" modified="2024-03-04T07:33:57.909Z" agent="Mozilla/5.0 (Macintosh; Intel Mac OS X 10_15_7) AppleWebKit/537.36 (KHTML, like Gecko) Chrome/122.0.0.0 Safari/537.36" etag="blBEJrGeX9anq_EDL179" version="24.0.1" type="github">
  <diagram name="Page-1" id="HwCjkdiK803by2Le8Yzv">
    <mxGraphModel dx="1590" dy="877" grid="1" gridSize="10" guides="1" tooltips="1" connect="1" arrows="1" fold="1" page="1" pageScale="1" pageWidth="827" pageHeight="1169" math="0" shadow="0">
      <root>
        <mxCell id="0" />
        <mxCell id="1" parent="0" />
        <mxCell id="hW9iTZXuqDiQQgdtoIhk-1" value="&lt;b&gt;&lt;font style=&quot;font-size: 18px;&quot;&gt;Start&lt;/font&gt;&lt;/b&gt;" style="rounded=0;whiteSpace=wrap;html=1;" vertex="1" parent="1">
          <mxGeometry x="340" y="90" width="120" height="60" as="geometry" />
        </mxCell>
        <mxCell id="hW9iTZXuqDiQQgdtoIhk-2" value="&lt;span style=&quot;font-size: 18px;&quot;&gt;&lt;b&gt;NLP&lt;/b&gt;&lt;/span&gt;" style="rounded=0;whiteSpace=wrap;html=1;" vertex="1" parent="1">
          <mxGeometry x="340" y="540" width="120" height="60" as="geometry" />
        </mxCell>
        <mxCell id="hW9iTZXuqDiQQgdtoIhk-3" value="&lt;font style=&quot;font-size: 20px;&quot;&gt;&lt;b&gt;FlyTag- Training&lt;/b&gt;&lt;/font&gt;" style="text;html=1;align=center;verticalAlign=middle;resizable=0;points=[];autosize=1;strokeColor=none;fillColor=none;" vertex="1" parent="1">
          <mxGeometry x="305" y="25" width="180" height="40" as="geometry" />
        </mxCell>
        <mxCell id="hW9iTZXuqDiQQgdtoIhk-4" value="&lt;span style=&quot;font-size: 18px;&quot;&gt;&lt;b&gt;Import Nessary Librariess&lt;/b&gt;&lt;/span&gt;" style="rounded=0;whiteSpace=wrap;html=1;" vertex="1" parent="1">
          <mxGeometry x="305" y="190" width="190" height="50" as="geometry" />
        </mxCell>
        <mxCell id="hW9iTZXuqDiQQgdtoIhk-6" value="&lt;span style=&quot;font-size: 18px;&quot;&gt;&lt;b&gt;Data Loading&lt;/b&gt;&lt;/span&gt;" style="rounded=0;whiteSpace=wrap;html=1;" vertex="1" parent="1">
          <mxGeometry x="305" y="280" width="190" height="50" as="geometry" />
        </mxCell>
        <mxCell id="hW9iTZXuqDiQQgdtoIhk-7" value="&lt;span style=&quot;font-size: 18px;&quot;&gt;&lt;b&gt;Visualize data for analysis&lt;/b&gt;&lt;/span&gt;" style="rounded=0;whiteSpace=wrap;html=1;" vertex="1" parent="1">
          <mxGeometry x="305" y="370" width="190" height="50" as="geometry" />
        </mxCell>
        <mxCell id="hW9iTZXuqDiQQgdtoIhk-8" value="&lt;span style=&quot;font-size: 18px;&quot;&gt;&lt;b&gt;Start Cleaning process&lt;/b&gt;&lt;/span&gt;" style="rounded=0;whiteSpace=wrap;html=1;" vertex="1" parent="1">
          <mxGeometry x="305" y="460" width="190" height="50" as="geometry" />
        </mxCell>
        <mxCell id="hW9iTZXuqDiQQgdtoIhk-10" value="&lt;span style=&quot;font-size: 18px;&quot;&gt;&lt;b&gt;Convert Text Lower&lt;/b&gt;&lt;/span&gt;" style="rounded=0;whiteSpace=wrap;html=1;" vertex="1" parent="1">
          <mxGeometry x="60" y="650" width="120" height="60" as="geometry" />
        </mxCell>
        <mxCell id="hW9iTZXuqDiQQgdtoIhk-11" value="&lt;span style=&quot;font-size: 18px;&quot;&gt;&lt;b&gt;Remove Numbers&lt;/b&gt;&lt;/span&gt;" style="rounded=0;whiteSpace=wrap;html=1;" vertex="1" parent="1">
          <mxGeometry x="200" y="650" width="120" height="60" as="geometry" />
        </mxCell>
        <mxCell id="hW9iTZXuqDiQQgdtoIhk-12" value="&lt;span style=&quot;font-size: 18px;&quot;&gt;&lt;b&gt;Remove Punctuation&lt;/b&gt;&lt;/span&gt;" style="rounded=0;whiteSpace=wrap;html=1;" vertex="1" parent="1">
          <mxGeometry x="340" y="650" width="120" height="60" as="geometry" />
        </mxCell>
        <mxCell id="hW9iTZXuqDiQQgdtoIhk-13" value="&lt;span style=&quot;font-size: 18px;&quot;&gt;&lt;b&gt;Remove stopwords&lt;/b&gt;&lt;/span&gt;" style="rounded=0;whiteSpace=wrap;html=1;" vertex="1" parent="1">
          <mxGeometry x="480" y="650" width="120" height="60" as="geometry" />
        </mxCell>
        <mxCell id="hW9iTZXuqDiQQgdtoIhk-14" value="&lt;span style=&quot;font-size: 18px;&quot;&gt;&lt;b&gt;Remove extra space&lt;/b&gt;&lt;/span&gt;" style="rounded=0;whiteSpace=wrap;html=1;" vertex="1" parent="1">
          <mxGeometry x="620" y="650" width="120" height="60" as="geometry" />
        </mxCell>
        <mxCell id="hW9iTZXuqDiQQgdtoIhk-15" value="&lt;span style=&quot;font-size: 18px;&quot;&gt;&lt;b&gt;Tokenize text data&lt;/b&gt;&lt;/span&gt;" style="rounded=0;whiteSpace=wrap;html=1;" vertex="1" parent="1">
          <mxGeometry x="340" y="760" width="120" height="60" as="geometry" />
        </mxCell>
        <mxCell id="hW9iTZXuqDiQQgdtoIhk-18" value="&lt;span style=&quot;font-size: 18px;&quot;&gt;&lt;b&gt;Encode Labels&lt;/b&gt;&lt;/span&gt;" style="rounded=0;whiteSpace=wrap;html=1;" vertex="1" parent="1">
          <mxGeometry x="340" y="860" width="120" height="60" as="geometry" />
        </mxCell>
        <mxCell id="hW9iTZXuqDiQQgdtoIhk-19" value="&lt;span style=&quot;font-size: 18px;&quot;&gt;&lt;b&gt;Encode Labels&lt;/b&gt;&lt;/span&gt;" style="rounded=0;whiteSpace=wrap;html=1;" vertex="1" parent="1">
          <mxGeometry x="340" y="950" width="120" height="60" as="geometry" />
        </mxCell>
      </root>
    </mxGraphModel>
  </diagram>
</mxfile>
